<svg aria-hidden="true" style="position: absolute; width: 0; height: 0; overflow: hidden;" version="1.1" xmlns="http://www.w3.org/2000/svg" xmlns:xlink="http://www.w3.org/1999/xlink">
<defs>
<symbol id="search" viewBox="0 0 16 16">
<path d="M15.56 15.56c-0.587 0.587-1.538 0.587-2.125 0l-2.652-2.652c-1.090 0.699-2.379 1.116-3.771 1.116-3.872 0-7.012-3.139-7.012-7.012s3.14-7.012 7.012-7.012c3.873 0 7.012 3.139 7.012 7.012 0 1.391-0.417 2.68-1.116 3.771l2.652 2.652c0.587 0.587 0.587 1.538 0 2.125zM7.012 2.003c-2.766 0-5.009 2.242-5.009 5.009s2.243 5.009 5.009 5.009c2.766 0 5.009-2.242 5.009-5.009s-2.242-5.009-5.009-5.009z"></path>
</symbol>
<symbol id="help" viewBox="0 0 24 24">
<path d="M23 12c0-3.037-1.232-5.789-3.222-7.778s-4.741-3.222-7.778-3.222-5.789 1.232-7.778 3.222-3.222 4.741-3.222 7.778 1.232 5.789 3.222 7.778 4.741 3.222 7.778 3.222 5.789-1.232 7.778-3.222 3.222-4.741 3.222-7.778zM21 12c0 2.486-1.006 4.734-2.636 6.364s-3.878 2.636-6.364 2.636-4.734-1.006-6.364-2.636-2.636-3.878-2.636-6.364 1.006-4.734 2.636-6.364 3.878-2.636 6.364-2.636 4.734 1.006 6.364 2.636 2.636 3.878 2.636 6.364zM10.033 9.332c0.183-0.521 0.559-0.918 1.022-1.14s1.007-0.267 1.528-0.083c0.458 0.161 0.819 0.47 1.050 0.859 0.183 0.307 0.284 0.665 0.286 1.037 0 0.155-0.039 0.309-0.117 0.464-0.080 0.16-0.203 0.325-0.368 0.49-0.709 0.709-1.831 1.092-1.831 1.092-0.524 0.175-0.807 0.741-0.632 1.265s0.741 0.807 1.265 0.632c0 0 1.544-0.506 2.613-1.575 0.279-0.279 0.545-0.614 0.743-1.010 0.2-0.4 0.328-0.858 0.328-1.369-0.004-0.731-0.204-1.437-0.567-2.049-0.463-0.778-1.19-1.402-2.105-1.724-1.042-0.366-2.135-0.275-3.057 0.167s-1.678 1.238-2.044 2.28c-0.184 0.521 0.090 1.092 0.611 1.275s1.092-0.091 1.275-0.611zM12 18c0.552 0 1-0.448 1-1s-0.448-1-1-1-1 0.448-1 1 0.448 1 1 1z"></path>
</symbol>
<symbol id="shortkey" viewBox="0 0 51 32">
<path fill="none" stroke="#e4e4e7" style="stroke: var(--color1, #e4e4e7)" stroke-linejoin="miter" stroke-linecap="butt" stroke-miterlimit="4" stroke-width="1.6" d="M0.8 6.4c0-3.093 2.507-5.6 5.6-5.6h38.4c3.093 0 5.6 2.507 5.6 5.6v19.2c0 3.093-2.507 5.6-5.6 5.6h-38.4c-3.093 0-5.6-2.507-5.6-5.6v-19.2z"></path>
<path fill="#70707b" style="fill: var(--color2, #70707b)" d="M14.877 22.714c-0.541 0-1.036-0.132-1.486-0.395-0.45-0.268-0.809-0.627-1.077-1.077-0.264-0.45-0.395-0.945-0.395-1.486 0-0.545 0.132-1.043 0.395-1.493 0.268-0.45 0.627-0.809 1.077-1.077s0.945-0.402 1.486-0.402h1.582v-2.741h-1.582c-0.541 0-1.036-0.132-1.486-0.395-0.45-0.268-0.809-0.625-1.077-1.070-0.264-0.45-0.395-0.948-0.395-1.493s0.132-1.041 0.395-1.486c0.268-0.45 0.627-0.807 1.077-1.070 0.45-0.268 0.945-0.402 1.486-0.402 0.545 0 1.043 0.134 1.493 0.402 0.45 0.264 0.809 0.62 1.077 1.070 0.268 0.445 0.402 0.941 0.402 1.486v1.568h2.741v-1.568c0-0.545 0.132-1.041 0.396-1.486 0.268-0.45 0.625-0.807 1.070-1.070 0.45-0.268 0.948-0.402 1.493-0.402s1.041 0.134 1.486 0.402c0.45 0.264 0.807 0.62 1.071 1.070 0.268 0.445 0.402 0.941 0.402 1.486s-0.134 1.043-0.402 1.493c-0.264 0.445-0.62 0.802-1.071 1.070-0.445 0.264-0.941 0.395-1.486 0.395h-1.568v2.741h1.568c0.545 0 1.041 0.134 1.486 0.402 0.45 0.268 0.807 0.627 1.071 1.077 0.268 0.45 0.402 0.948 0.402 1.493 0 0.541-0.134 1.036-0.402 1.486-0.264 0.45-0.62 0.809-1.071 1.077-0.445 0.264-0.941 0.395-1.486 0.395s-1.043-0.132-1.493-0.395c-0.445-0.268-0.802-0.627-1.070-1.077-0.264-0.45-0.396-0.945-0.396-1.486v-1.582h-2.741v1.582c0 0.541-0.134 1.036-0.402 1.486s-0.627 0.809-1.077 1.077c-0.45 0.264-0.948 0.395-1.493 0.395zM14.877 21.323c0.291 0 0.555-0.070 0.791-0.211 0.241-0.141 0.432-0.33 0.573-0.566 0.145-0.241 0.218-0.504 0.218-0.791v-1.582h-1.582c-0.286 0-0.55 0.073-0.791 0.218-0.236 0.141-0.425 0.332-0.566 0.573-0.141 0.236-0.211 0.5-0.211 0.791 0 0.286 0.070 0.55 0.211 0.791 0.141 0.236 0.33 0.425 0.566 0.566 0.241 0.141 0.505 0.211 0.791 0.211zM14.877 12.65h1.582v-1.568c0-0.291-0.073-0.555-0.218-0.791-0.141-0.236-0.332-0.425-0.573-0.566-0.236-0.141-0.5-0.211-0.791-0.211-0.286 0-0.55 0.070-0.791 0.211-0.236 0.141-0.425 0.33-0.566 0.566s-0.211 0.5-0.211 0.791c0 0.291 0.070 0.557 0.211 0.798 0.141 0.236 0.33 0.425 0.566 0.566 0.241 0.136 0.505 0.205 0.791 0.205zM21.982 12.65h1.568c0.291 0 0.554-0.068 0.791-0.205 0.236-0.141 0.425-0.33 0.566-0.566 0.141-0.241 0.211-0.507 0.211-0.798s-0.071-0.555-0.211-0.791c-0.141-0.236-0.33-0.425-0.566-0.566s-0.5-0.211-0.791-0.211c-0.291 0-0.557 0.070-0.798 0.211-0.236 0.141-0.425 0.33-0.566 0.566-0.136 0.236-0.205 0.5-0.205 0.791v1.568zM23.55 21.323c0.291 0 0.554-0.070 0.791-0.211s0.425-0.33 0.566-0.566c0.141-0.241 0.211-0.504 0.211-0.791 0-0.291-0.071-0.555-0.211-0.791-0.141-0.241-0.33-0.432-0.566-0.573-0.236-0.145-0.5-0.218-0.791-0.218h-1.568v1.582c0 0.286 0.068 0.55 0.205 0.791 0.141 0.236 0.329 0.425 0.566 0.566 0.241 0.141 0.507 0.211 0.798 0.211zM17.85 16.782h2.741v-2.741h-2.741v2.741zM30.51 22.4v-13.964h1.691v6.927h0.164l6.273-6.927h2.209l-5.864 6.3 5.864 7.664h-2.045l-4.855-6.491-1.745 1.964v4.527h-1.691z"></path>
</symbol>
<symbol id="info" viewBox="0 0 20 20">
<path d="M2.93 17.070c-1.884-1.821-3.053-4.37-3.053-7.193 0-5.523 4.477-10 10-10 2.823 0 5.372 1.169 7.19 3.050l0.003 0.003c1.737 1.796 2.807 4.247 2.807 6.947 0 5.523-4.477 10-10 10-2.7 0-5.151-1.070-6.95-2.81l0.003 0.003zM15.66 15.66c1.449-1.449 2.344-3.45 2.344-5.66 0-4.421-3.584-8.004-8.004-8.004-2.21 0-4.211 0.896-5.66 2.344v0c-1.449 1.449-2.344 3.45-2.344 5.66 0 4.421 3.584 8.004 8.004 8.004 2.21 0 4.211-0.896 5.66-2.344v0zM9 11v-2h2v6h-2v-4zM9 5h2v2h-2v-2z"></path>
</symbol>
</defs>
</svg>
